<?xml version="1.0" encoding="UTF-8"?>
<svg width="304px" height="252px" viewBox="0 0 304 252" version="1.1" xmlns="http://www.w3.org/2000/svg" xmlns:xlink="http://www.w3.org/1999/xlink">
    <!-- Generator: Sketch 53.2 (72643) - https://sketchapp.com -->
    <title>Shape</title>
    <desc>Created with Sketch.</desc>
    <g id="04_Technologies" stroke="none" stroke-width="1" fill="none" fill-rule="evenodd">
        <g id="04_Technologies_02-C++" transform="translate(-1276.000000, -1583.000000)" fill="#F4F4F6" fill-rule="nonzero">
            <g id="03" transform="translate(0.000000, 1179.000000)">
                <path d="M1580,522.999588 L1580,536.999176 L1565.99918,536.999176 L1565.99918,551 L1552.00082,551 L1552.00082,536.999176 L1538,536.999176 L1538,522.999588 L1552.00082,522.999588 L1552.00082,509 L1565.99918,509 L1565.99918,522.999588 L1580,522.999588 Z M1401.40061,656 C1332.25447,656 1276,599.476647 1276,530 C1276,460.523353 1332.25447,404 1401.40061,404 C1446.01864,404 1487.63074,428.125294 1509.99631,466.960471 L1455.72612,498.514824 C1444.53227,479.076235 1423.71454,467 1401.40061,467 C1366.82693,467 1338.70031,495.261059 1338.70031,530 C1338.70031,564.737706 1366.82693,593 1401.40061,593 C1423.717,593 1444.53473,580.923765 1455.72981,561.481471 L1510,593.034588 C1487.63443,631.873471 1446.0211,656 1401.40061,656 Z M1528,522.999588 L1528,536.999176 L1513.99918,536.999176 L1513.99918,551 L1500.00082,551 L1500.00082,536.999176 L1486,536.999176 L1486,522.999588 L1500.00082,522.999588 L1500.00082,509 L1513.99918,509 L1513.99918,522.999588 L1528,522.999588 Z" id="Shape" transform="translate(1428.000000, 530.000000) rotate(-360.000000) translate(-1428.000000, -530.000000) "></path>
            </g>
        </g>
    </g>
</svg>